PathFileType	4	(X/Y/Z)	C:\Users\dbl\Desktop\LZH\BX\Trimmed_Trimmed_bx_y_5_501.trc
DataRate	CameraRate	NumFrames	NumMarkers	Units	OrigDataRate	OrigDataStartFrame	OrigNumFrames
50.00	50.00	       6	43	mm	50.00	1	       438
Frame#	Time	Top.Head			R.Acromium			L.Acromium			Sternum			R.ASIS			L.ASIS			V.Sacral			R.Thigh.Upper			R.Thigh.Front			R.Thigh.Rear			R.Knee.Lat			R.Knee.Med			R.Shank.Upper			R.Shank.Front			R.Shank.Rear			R.Ankle.Lat			R.Midfoot.Lat			R.Toe.Lat			R.Toe.Tip			R.Toe.Med			R.Ankle.Med			R.Midfoot.Sup			R.Heel			L.Thigh.Upper			L.Thigh.Front			L.Thigh.Rear			L.Knee.Lat			L.Knee.Med			L.Shank.Upper			L.Shank.Front			L.Shank.Rear			L.Ankle.Lat			L.Midfoot.Lat			L.Toe.Lat			L.Toe.Tip			L.Toe.Med			L.Ankle.Med			L.Midfoot.Sup			L.Heel			origin1 front left			origin2 front right			origin 3 back right			origin 4 back leftt			
		X1	Y1	Z1	X2	Y2	Z2	X3	Y3	Z3	X4	Y4	Z4	X5	Y5	Z5	X6	Y6	Z6	X7	Y7	Z7	X8	Y8	Z8	X9	Y9	Z9	X10	Y10	Z10	X11	Y11	Z11	X12	Y12	Z12	X13	Y13	Z13	X14	Y14	Z14	X15	Y15	Z15	X16	Y16	Z16	X17	Y17	Z17	X18	Y18	Z18	X19	Y19	Z19	X20	Y20	Z20	X21	Y21	Z21	X22	Y22	Z22	X23	Y23	Z23	X24	Y24	Z24	X25	Y25	Z25	X26	Y26	Z26	X27	Y27	Z27	X28	Y28	Z28	X29	Y29	Z29	X30	Y30	Z30	X31	Y31	Z31	X32	Y32	Z32	X33	Y33	Z33	X34	Y34	Z34	X35	Y35	Z35	X36	Y36	Z36	X37	Y37	Z37	X38	Y38	Z38	X39	Y39	Z39	X40	Y40	Z40	X41	Y41	Z41	X42	Y42	Z42	X43	Y43	Z43	

1	0.000	-668.37823	270.97665	1842.76733	-655.10272	74.64848	1538.68506	-667.01483	460.83005	1524.66309	-540.29144	279.21164	1408.42383	-540.18286	154.26570	1052.29944	-543.97504	412.83517	1068.19043	-744.64026	267.98447	1019.69635	-571.75012	105.62514	889.20886	-526.68481	165.90080	841.11536	-623.63660	99.01665	745.93542	-650.24371	130.79828	601.04742	-630.61084	238.47554	558.18951	-682.95251	130.73958	540.22296	-599.01440	179.89429	541.07507	-721.41962	133.64053	473.43829	-684.09735	149.54340	215.17096	-613.21790	83.62560	169.98436	-568.78033	58.10001	166.40131	-489.92603	96.23691	163.47754	-528.49042	149.36613	164.16061	-629.48285	222.93712	219.32851	-588.41949	193.19725	169.45467	-714.10437	218.29390	169.09851	-565.39166	445.60120	876.29626	-522.91077	380.43457	835.51776	-614.09308	448.15106	749.79651	-645.96472	419.97226	624.75543	-617.39337	313.46207	579.87036	-605.32092	371.77719	540.86505	-655.32367	415.14551	561.94183	-708.17877	421.66724	511.75272	-678.42554	416.18130	212.16154	-582.55219	467.07935	166.52422	-542.64478	475.50583	161.36659	-477.05704	428.86737	166.53142	-522.96979	385.97455	177.17589	-643.38617	326.74615	207.09325	-593.49274	346.80911	168.47198	-732.72168	345.15247	164.37703	-443.85126	448.82397	147.99797	-450.57477	75.43474	144.58891	-806.29303	82.68784	142.56000	-800.25055	456.90295	146.44492	
2	0.020	-668.57861	270.96265	1842.76697	-655.16614	74.66064	1538.73596	-667.07043	460.86151	1524.65820	-540.32404	279.21140	1408.48413	-540.37183	154.40681	1052.19348	-544.04700	412.79276	1068.21326	-744.71423	267.99075	1019.75220	-571.81946	105.55901	889.19720	-526.70630	165.90054	841.22498	-623.61719	99.01843	745.91418	-650.25531	130.79709	601.00018	-630.61017	238.48161	558.18066	-682.91675	130.62788	540.24255	-599.00854	179.85474	541.05487	-721.44696	133.62309	473.43375	-684.03632	149.60266	215.14047	-613.20575	83.67319	169.96901	-568.77917	58.11650	166.38297	-489.90646	96.27702	163.47437	-528.52240	149.37367	164.16722	-629.45880	222.94402	219.31354	-588.44672	193.18568	169.48685	-714.11182	218.29672	169.11458	-565.48846	445.54114	876.32568	-522.64722	380.46091	835.93195	-614.17004	448.05307	749.76776	-645.98938	420.01794	624.77399	-617.37268	313.42780	579.83063	-605.35834	371.76599	540.90509	-655.33618	415.12552	561.98724	-708.21619	421.64252	511.79892	-678.38007	416.08902	212.05710	-582.61627	467.05655	166.43050	-542.65363	475.52451	161.34166	-476.94986	428.87454	166.70738	-523.03088	385.95551	177.14867	-643.38519	326.74561	207.09930	-593.56970	346.88193	168.45322	-732.70386	345.19119	164.40070	-443.82919	448.81711	148.00534	-450.60239	75.45239	144.55772	-806.26563	82.66990	142.58485	-800.25079	456.99304	146.45651	
3	0.040	-668.77765	270.95157	1842.76538	-655.22040	74.67087	1538.79700	-667.13403	460.88245	1524.66650	-540.35046	279.20197	1408.54749	-540.54010	154.52010	1052.10217	-544.11725	412.74689	1068.23230	-744.79028	267.98801	1019.80963	-571.87823	105.50265	889.19147	-526.72675	165.89642	841.32025	-623.61072	99.01364	745.90015	-650.26733	130.79547	600.95520	-630.61218	238.48541	558.17291	-682.89221	130.52930	540.26056	-599.00580	179.81920	541.03577	-721.47046	133.60005	473.43475	-683.98535	149.64969	215.11644	-613.19824	83.70988	169.95779	-568.77783	58.13374	166.36484	-489.88754	96.31438	163.47166	-528.54584	149.37946	164.16814	-629.44104	222.95116	219.30130	-588.46301	193.17912	169.51665	-714.11792	218.30255	169.12752	-565.58521	445.48734	876.35675	-522.42480	380.49030	836.30847	-614.25568	447.97623	749.76257	-646.01233	420.05206	624.79437	-617.35620	313.39340	579.79834	-605.43384	371.79407	540.95624	-655.31091	415.07599	562.01324	-708.24927	421.62317	511.83728	-678.34497	416.01819	211.97621	-582.67188	467.03320	166.35165	-542.66211	475.54141	161.31673	-476.84659	428.88254	166.86646	-523.07825	385.93842	177.12296	-643.38141	326.74658	207.10677	-593.63831	346.94373	168.43770	-732.69391	345.22342	164.42220	-443.81375	448.80939	148.00865	-450.62875	75.47004	144.52893	-806.24579	82.65108	142.60591	-800.25220	457.06195	146.46141	
4	0.060	-668.97363	270.94525	1842.76257	-655.25934	74.67750	1538.87549	-667.21234	460.88541	1524.69678	-540.36646	279.17953	1408.61450	-540.67230	154.58693	1052.03711	-544.18457	412.69598	1068.24683	-744.86798	267.97064	1019.86719	-571.91980	105.46190	889.19550	-526.74951	165.88557	841.39111	-623.62579	98.99731	745.89801	-650.27838	130.79250	600.91687	-630.61774	238.48579	558.16718	-682.88495	130.45229	540.27478	-599.00714	179.78941	541.01990	-721.48804	133.56894	473.44406	-683.94965	149.67673	215.10394	-613.19745	83.72923	169.95285	-568.77563	58.15158	166.34705	-489.87042	96.34663	163.47047	-528.55560	149.38216	164.15990	-629.43298	222.95845	219.29335	-588.46289	193.17996	169.54204	-714.12213	218.31340	169.13524	-565.68018	445.44431	876.39307	-522.27460	380.52420	836.61780	-614.35248	447.93323	749.79340	-646.03174	420.06784	624.81659	-617.34741	313.35858	579.77893	-605.56305	371.87927	541.02228	-655.23138	414.98450	562.01074	-708.27588	421.61295	511.86200	-678.32611	415.98022	211.93289	-582.71362	467.00775	166.29543	-542.67004	475.55496	161.29317	-476.74957	428.89221	166.99770	-523.10291	385.92468	177.09961	-643.37421	326.74960	207.11575	-593.69159	346.98621	168.42709	-732.69666	345.24380	164.44009	-443.80856	448.80051	148.00560	-450.65244	75.48727	144.50468	-806.23865	82.63324	142.62048	-800.25647	457.09702	146.45613	
5	0.080	-669.16376	270.94370	1842.75977	-655.28027	74.67994	1538.97192	-667.30933	460.86755	1524.75061	-540.37085	279.14709	1408.68213	-540.76154	154.60291	1052.00378	-544.24988	412.64120	1068.25964	-744.94409	267.93793	1019.91907	-571.94299	105.43675	889.21008	-526.78290	165.86693	841.43396	-623.66400	98.96756	745.90887	-650.28528	130.78668	600.89166	-630.62543	238.48311	558.16382	-682.89355	130.39845	540.28259	-599.01117	179.76419	541.01056	-721.50122	133.53174	473.46021	-683.92725	149.68292	215.10506	-613.20172	83.73157	169.95340	-568.77106	58.16870	166.32959	-489.85699	96.37209	163.47231	-528.55145	149.38110	164.14252	-629.43372	222.96533	219.28966	-588.44904	193.18719	169.56143	-714.12433	218.32922	169.13748	-565.76959	445.41367	876.43909	-522.21045	380.56131	836.84387	-614.45447	447.92365	749.85596	-646.04614	420.06552	624.83856	-617.34796	313.32309	579.77460	-605.71240	371.99377	541.08875	-655.12872	414.87796	561.99207	-708.29688	421.61264	511.87082	-678.32306	415.97241	211.92665	-582.74072	466.97794	166.25981	-542.67719	475.56390	161.27399	-476.65994	428.90433	167.09828	-523.10309	385.91504	177.07861	-643.36584	326.75424	207.12503	-593.72504	347.00565	168.42081	-732.71161	345.24942	164.45403	-443.81281	448.79129	147.99670	-450.67215	75.50322	144.48653	-806.24536	82.62140	142.62741	-800.26520	457.09802	146.44189	
6	0.100	-669.34271	270.94507	1842.75891	-655.28125	74.68011	1539.07568	-667.42450	460.82983	1524.82275	-540.36536	279.11105	1408.74536	-540.81055	154.57736	1052.00159	-544.31708	412.58517	1068.27502	-745.01373	267.89310	1019.95660	-571.95111	105.42204	889.23291	-526.83649	165.84158	841.45111	-623.71948	98.92645	745.92987	-650.28406	130.77649	600.88550	-630.63165	238.47867	558.16278	-682.91095	130.36348	540.28204	-599.01520	179.74057	541.01086	-721.51508	133.49364	473.47861	-683.91205	149.67355	215.11792	-613.20691	83.72295	169.95645	-568.76331	58.18313	166.31256	-489.84915	96.39016	163.47844	-528.53754	149.37634	164.11917	-629.43933	222.97112	219.28894	-588.43024	193.19740	169.57373	-714.12482	218.34744	169.13548	-565.84857	445.39426	876.49823	-522.22705	380.59763	836.98608	-614.54999	447.93549	749.93280	-646.05481	420.05099	624.85669	-617.35706	313.28729	579.78357	-605.77863	372.04608	541.11359	-655.10419	414.84244	562.00055	-708.31500	421.61948	511.86475	-678.32990	415.98160	211.94470	-582.75568	466.94296	166.23642	-542.68396	475.56833	161.26279	-476.57950	428.91870	167.17155	-523.08411	385.90985	177.05960	-643.36023	326.75958	207.13295	-593.73761	347.00351	168.41699	-732.73328	345.24030	164.46425	-443.82233	448.78357	147.98514	-450.68689	75.51700	144.47517	-806.26263	82.62160	142.62674	-800.27802	457.07513	146.42351	
